<?xml version="1.0" encoding="UTF-8" standalone="no"?>
<!-- Created with Inkscape (http://www.inkscape.org/) -->

<svg
   width="88.723839mm"
   height="15.357422mm"
   viewBox="0 0 88.723833 15.357423"
   version="1.1"
   id="svg1"
   inkscape:export-filename="logo_briandev.svg"
   inkscape:export-xdpi="96"
   inkscape:export-ydpi="96"
   xmlns:inkscape="http://www.inkscape.org/namespaces/inkscape"
   xmlns:sodipodi="http://sodipodi.sourceforge.net/DTD/sodipodi-0.dtd"
   xmlns="http://www.w3.org/2000/svg"
   xmlns:svg="http://www.w3.org/2000/svg">
  <sodipodi:namedview
     id="namedview1"
     pagecolor="#ffffff"
     bordercolor="#000000"
     borderopacity="0.25"
     inkscape:showpageshadow="2"
     inkscape:pageopacity="0.0"
     inkscape:pagecheckerboard="0"
     inkscape:deskcolor="#d1d1d1"
     inkscape:document-units="mm" />
  <defs
     id="defs1" />
  <g
     inkscape:label="Layer 1"
     inkscape:groupmode="layer"
     id="layer1"
     transform="translate(-73.311685,-98.953652)">
    <g
       id="g2"
       transform="matrix(0.26458333,0,0,0.26458333,-318.53075,-168.03093)">
      <path
         style="font-weight:800;font-size:71.6055px;font-family:'JetBrains Mono';-inkscape-font-specification:'JetBrains Mono Ultra-Bold';letter-spacing:-0.01px;word-spacing:-0.03px;baseline-shift:baseline;fill:#ffffff;stroke-width:5.96713"
         d="m 1480.9793,1065.8588 v -52.272 h 16.8273 q 7.9482,0 12.6741,3.6518 4.726,3.5803 4.726,9.7384 0,3.437 -1.6469,6.0148 -1.5753,2.5778 -4.2964,4.0099 -2.6494,1.4322 -5.8,1.4322 v 0.2148 q 3.5087,-0.072 6.3729,1.2889 2.9358,1.3605 4.726,4.0815 1.7901,2.721 1.7901,6.7309 0,4.5828 -2.2198,8.0198 -2.1481,3.3655 -6.1581,5.2272 -4.0099,1.8618 -9.5235,1.8618 z m 10.3828,-8.6643 h 6.6593 q 3.5087,0 5.5136,-1.8617 2.005,-1.8618 2.005,-5.1556 0,-3.2939 -2.005,-5.1556 -2.0049,-1.9334 -5.5136,-1.9334 h -6.6593 z m 0,-22.5557 h 6.3013 q 3.1506,0 4.9407,-1.647 1.7902,-1.7185 1.7902,-4.5827 0,-2.9358 -1.7902,-4.5112 -1.7901,-1.6469 -4.9407,-1.6469 h -6.3013 z m 33.7162,31.22 v -39.3831 h 10.0248 v 7.5186 h 2.721 l -3.0791,4.5828 q 0,-6.3729 2.9359,-9.5952 2.9358,-3.2222 8.5926,-3.2222 6.5161,0 10.0964,3.9383 3.6519,3.9383 3.6519,11.0988 v 3.2223 h -11.4569 v -2.5062 q 0,-3.2223 -1.7901,-5.0124 -1.7186,-1.7901 -4.6544,-1.7901 -3.079,0 -4.726,1.7901 -1.5753,1.7901 -1.5753,5.0124 v 24.3459 z m 42.094,0 v -9.7384 h 13.6051 v -19.9779 h -11.8149 v -9.6668 h 21.8397 v 29.6447 h 11.4568 v 9.7384 z m 17.9014,-45.6127 q -2.9358,0 -4.7259,-1.5038 -1.7186,-1.5037 -1.7186,-4.0815 0,-2.5778 1.7186,-4.0815 1.7901,-1.5037 4.7259,-1.5037 2.9358,0 4.6544,1.5037 1.7901,1.5037 1.7901,4.0815 0,2.5778 -1.7901,4.0815 -1.7186,1.5038 -4.6544,1.5038 z m 36.4372,46.3287 q -5.9432,0 -9.4519,-3.2222 -3.437,-3.2223 -3.437,-8.7359 0,-5.9433 4.0815,-9.0939 4.1531,-3.2222 11.8865,-3.2222 h 8.163 v -2.9359 q 0,-2.2913 -1.6469,-3.6519 -1.5753,-1.3605 -4.2963,-1.3605 -2.5062,0 -4.1532,1.1457 -1.6469,1.1457 -2.0049,3.1507 h -10.3828 q 0.6444,-5.9433 5.1556,-9.3803 4.5827,-3.5087 11.7433,-3.5087 7.5186,0 11.8865,3.7235 4.4395,3.6519 4.4395,9.8815 v 26.4941 h -10.3828 v -6.4445 h -1.7185 l 1.7901,-2.5062 q 0,4.4395 -3.2222,7.0889 -3.1506,2.5778 -8.4495,2.5778 z m 4.01,-7.8766 q 3.1506,0 5.1556,-1.6469 2.0765,-1.7185 2.0765,-4.4396 v -4.2247 h -7.9482 q -2.4346,0 -3.9383,1.4321 -1.5037,1.3605 -1.5037,3.6519 0,2.4346 1.6469,3.8667 1.6469,1.3605 4.5112,1.3605 z m 27.2717,7.1606 v -39.3831 h 10.3828 v 7.5186 h 3.1506 l -3.1506,2.5062 q 0,-5.0124 2.8642,-7.8766 2.8642,-2.8642 7.7334,-2.8642 5.7284,0 9.1655,4.0099 3.5087,4.0099 3.5087,10.6692 v 25.42 h -10.7409 v -24.3459 q 0,-3.079 -1.6469,-4.726 -1.5753,-1.7185 -4.5111,-1.7185 -2.8643,0 -4.4396,1.7185 -1.5753,1.647 -1.5753,4.726 v 24.3459 z"
         id="text3"
         aria-label="Brian" />
      <path
         style="font-weight:800;font-size:71.6055px;font-family:'JetBrains Mono';-inkscape-font-specification:'JetBrains Mono Ultra-Bold';fill:#0ea5e9;fill-opacity:1;stroke-width:5.96713"
         d="m 1693.8681,1066.4033 v -52.272 h 16.9705 q 5.442,0 9.4519,2.0766 4.0815,2.0765 6.3013,5.8716 2.2914,3.7235 2.2914,8.8075 v 18.689 q 0,5.0124 -2.2914,8.8075 -2.2198,3.7951 -6.3013,5.9433 -4.0099,2.0765 -9.4519,2.0765 z m 10.7408,-10.0247 h 6.2297 q 3.2938,0 5.2988,-1.8618 2.0049,-1.8617 2.0049,-4.9408 v -18.689 q 0,-3.0074 -2.0049,-4.8692 -2.005,-1.8617 -5.2988,-1.8617 h -6.2297 z m 49.2646,10.7408 q -5.2272,0 -9.1655,-1.9334 -3.8667,-2.0049 -6.0149,-5.5136 -2.0765,-3.5803 -2.0765,-8.3062 v -9.3087 q 0,-4.726 2.0765,-8.2347 2.1482,-3.5803 6.0149,-5.5136 3.9383,-2.005 9.1655,-2.005 5.2272,0 9.0223,2.005 3.8667,1.9333 5.9433,5.5136 2.1481,3.5087 2.1481,8.2347 v 7.1605 h -24.131 v 2.1482 q 0,3.7235 1.7901,5.6568 1.7902,1.8617 5.3704,1.8617 2.5062,0 4.0099,-0.8592 1.5754,-0.8593 2.0766,-2.363 h 10.526 q -1.2889,5.1556 -5.8716,8.3062 -4.5112,3.1507 -10.8841,3.1507 z m 6.8741,-23.415 v -1.7902 q 0,-3.6518 -1.7185,-5.5852 -1.6469,-1.9333 -5.1556,-1.9333 -3.5087,0 -5.2988,2.0049 -1.7185,2.005 -1.7185,5.6569 v 1.074 l 14.6075,-0.1432 z m 29.3583,22.6989 -12.889,-39.383 h 11.0989 l 6.5877,22.1261 q 0.5728,2.0049 1.1457,4.3679 0.5728,2.363 0.8592,3.7951 0.3581,-1.4321 0.8593,-3.7951 0.5729,-2.363 1.0741,-4.2963 l 6.5161,-22.1977 h 10.9556 l -12.7457,39.383 z"
         id="text3-4"
         aria-label="Dev" />
    </g>
  </g>
</svg>
